<svg width="35" height="32" viewBox="0 0 35 32" fill="none" xmlns="http://www.w3.org/2000/svg">
<path d="M30.6686 19.4445H12.8559L13.2536 21.3889H29.5638C30.4996 21.3889 31.1932 22.2579 30.9858 23.1704L30.6506 24.6455C31.7863 25.1968 32.5695 26.3611 32.5695 27.7083C32.5695 29.6043 31.0188 31.1381 29.1166 31.1108C27.3044 31.0847 25.8141 29.6141 25.7652 27.8023C25.7384 26.8127 26.1349 25.9157 26.7862 25.2777H14.0472C14.6777 25.8955 15.0694 26.7559 15.0694 27.7083C15.0694 29.6414 13.4575 31.1981 11.5044 31.1074C9.77023 31.0268 8.35984 29.6256 8.26869 27.8919C8.19833 26.553 8.90282 25.3729 9.97318 24.7573L5.7047 3.88889H1.45833C0.652908 3.88889 0 3.23598 0 2.43056V1.45833C0 0.652908 0.652908 0 1.45833 0H7.6884C8.38117 0 8.97829 0.487387 9.11714 1.16606L9.6741 3.88889H33.5411C34.4769 3.88889 35.1705 4.75788 34.9631 5.67043L32.0906 18.3093C31.9398 18.9733 31.3495 19.4445 30.6686 19.4445ZM24.4896 11.6667H21.875V8.02084C21.875 7.61815 21.5485 7.29167 21.1458 7.29167H19.6875C19.2848 7.29167 18.9583 7.61815 18.9583 8.02084V11.6667H16.3437C15.6941 11.6667 15.3688 12.4521 15.8281 12.9114L19.9011 16.9844C20.1858 17.2691 20.6475 17.2691 20.9323 16.9844L25.0053 12.9114C25.4646 12.4521 25.1392 11.6667 24.4896 11.6667Z" fill="black" fill-opacity="0.7"/>
</svg>
