<svg width="331" height="72" viewBox="0 0 331 72" fill="none" xmlns="http://www.w3.org/2000/svg">
<path d="M42.192 19.16V53H32.784V34.328L26.4 53H18.528L12.096 34.184V53H2.688V19.16H14.064L22.56 41.144L30.864 19.16H42.192ZM79.2754 19.16L67.3714 42.248V53H57.9154V42.248L46.0114 19.16H56.7634L62.7154 32.216L68.6674 19.16H79.2754ZM114.871 30.296C114.327 29.4 113.575 28.712 112.615 28.232C111.687 27.752 110.583 27.512 109.303 27.512C106.935 27.512 105.063 28.28 103.687 29.816C102.343 31.352 101.671 33.416 101.671 36.008C101.671 38.92 102.391 41.144 103.831 42.68C105.303 44.184 107.431 44.936 110.215 44.936C113.511 44.936 115.863 43.448 117.271 40.472H107.815V33.704H125.383V42.824C124.647 44.616 123.559 46.296 122.119 47.864C120.711 49.432 118.919 50.728 116.743 51.752C114.567 52.744 112.087 53.24 109.303 53.24C105.911 53.24 102.903 52.52 100.279 51.08C97.6871 49.608 95.6711 47.576 94.2311 44.984C92.8231 42.36 92.1191 39.368 92.1191 36.008C92.1191 32.68 92.8231 29.72 94.2311 27.128C95.6711 24.504 97.6871 22.472 100.279 21.032C102.871 19.56 105.863 18.824 109.255 18.824C113.511 18.824 117.031 19.848 119.815 21.896C122.599 23.944 124.327 26.744 124.999 30.296H114.871ZM139.967 19.16V53H130.559V19.16H139.967ZM169.229 19.16V26.648H155.693V32.6H165.677V39.752H155.693V53H146.285V19.16H169.229ZM199.639 19.16V26.648H190.615V53H181.207V26.648H172.279V19.16H199.639ZM235.827 35.624C237.811 36.072 239.379 37.064 240.531 38.6C241.715 40.104 242.307 41.832 242.307 43.784C242.307 46.664 241.315 48.92 239.331 50.552C237.347 52.184 234.563 53 230.979 53H214.227V19.16H230.451C233.907 19.16 236.611 19.928 238.563 21.464C240.547 23 241.539 25.16 241.539 27.944C241.539 29.928 241.011 31.592 239.955 32.936C238.931 34.248 237.555 35.144 235.827 35.624ZM223.635 32.6H228.387C230.755 32.6 231.939 31.624 231.939 29.672C231.939 27.656 230.755 26.648 228.387 26.648H223.635V32.6ZM229.107 45.416C231.475 45.416 232.659 44.424 232.659 42.44C232.659 41.416 232.339 40.632 231.699 40.088C231.091 39.544 230.211 39.272 229.059 39.272H223.635V45.416H229.107ZM319.296 53L312.72 43.448L307.104 53H296.4L307.392 35.672L296.016 19.16H307.104L313.488 28.472L318.96 19.16H329.664L318.816 36.2L330.384 53H319.296Z" fill="#9E8472"/>
<path d="M276.933 36.5024C275.745 36.5024 274.627 35.7993 274.022 34.6743L269.502 26.3464L264.988 34.6743C264.376 35.8071 263.258 36.5102 262.07 36.5102C261.754 36.5102 261.437 36.4634 261.135 36.3618L251.503 33.2994V47.2053C251.503 48.3537 252.206 49.3536 253.204 49.6271L268.405 53.8535C269.122 54.0488 269.874 54.0488 270.584 53.8535L285.799 49.6271C286.797 49.3458 287.5 48.3459 287.5 47.2053V33.2994L277.868 36.354C277.566 36.4555 277.25 36.5024 276.933 36.5024ZM291.881 27.737L288.26 19.706C288.042 19.2216 287.571 18.9404 287.086 19.0107L269.502 21.5028L275.949 33.3853C276.216 33.8775 276.75 34.1119 277.25 33.9556L291.163 29.5417C291.86 29.3151 292.197 28.4558 291.881 27.737ZM250.743 19.706L247.122 27.737C246.799 28.4558 247.144 29.3151 247.833 29.5339L261.747 33.9478C262.246 34.104 262.78 33.8697 263.047 33.3775L269.502 21.5028L251.91 19.0107C251.425 18.9482 250.961 19.2216 250.743 19.706Z" fill="#9E8372"/>
</svg>
