<svg width="115" height="115" viewBox="0 0 115 115" fill="none" xmlns="http://www.w3.org/2000/svg">
<path d="M57.5 0C25.7359 0 0 25.7359 0 57.5C0 89.2641 25.7359 115 57.5 115C89.2641 115 115 89.2641 115 57.5C115 25.7359 89.2641 0 57.5 0ZM90.8871 63.9919C90.8871 65.5222 89.6351 66.7742 88.1048 66.7742H66.7742V88.1048C66.7742 89.6351 65.5222 90.8871 63.9919 90.8871H51.0081C49.4778 90.8871 48.2258 89.6351 48.2258 88.1048V66.7742H26.8952C25.3649 66.7742 24.1129 65.5222 24.1129 63.9919V51.0081C24.1129 49.4778 25.3649 48.2258 26.8952 48.2258H48.2258V26.8952C48.2258 25.3649 49.4778 24.1129 51.0081 24.1129H63.9919C65.5222 24.1129 66.7742 25.3649 66.7742 26.8952V48.2258H88.1048C89.6351 48.2258 90.8871 49.4778 90.8871 51.0081V63.9919Z" fill="#9E8372"/>
</svg>
